PathFileType	4	(X/Y/Z)	C:/Users/beibeiliu/ov580/test_trc/capture2\sequence.8_training_dense_right.trc
DataRate	CameraRate	NumFrames	NumMarkers	Units	OrigDataRate	OrigDataStartFrame	OrigNumFrames
120	120	12	19	mm	120	201	400
Frame#	Time	ThumbCMC			ThumbMCP			ThumbIP			ThumbTip			IndexMCP			IndexPIP			IndexTip			MiddleMCP			MiddlePIP			MiddleTip			RingMCP			RingPIP			RingTip			PinkyMCP			PinkyPIP			PinkyTip			BackHand1			BackHand2			BackHand3	
		X0	Y0	Z0	X1	Y1	Z1	X2	Y2	Z2	X3	Y3	Z3	X4	Y4	Z4	X5	Y5	Z5	X6	Y6	Z6	X7	Y7	Z7	X8	Y8	Z8	X9	Y9	Z9	X10	Y10	Z10	X11	Y11	Z11	X12	Y12	Z12	X13	Y13	Z13	X14	Y14	Z14	X15	Y15	Z15	X16	Y16	Z16	X17	Y17	Z17	X18	Y18	Z18	
200	1.66667	182.941	35.9033	-23.9726	170.646	51.4693	-42.3678	167.481	61.7945	-69.9497	166.848	73.5693	-85.3618	173.976	10.2499	-90.8133	168.16	8.95003	-115.964	164.281	2.70237	-137.372	159.899	-17.3055	-90.3814	153.763	-22.6314	-110.707	148.143	-33.9713	-136.008	145.88	-32.6383	-74.7916	134.651	-43.3502	-94.6724	124.82	-56.022	-117.121	130.29	-41.0899	-48.8069	113.446	-53.7624	-63.723	100.384	-70.5683	-72.8424	170.592	-22.4446	-35.2458	179.672	-21.7748	-2.63529	191.523	0.467962	-31.1221	
201	1.675	188.703	42.7524	-22.7225	176.674	58.6982	-46.4676	174.629	68.3082	-66.3417	173.462	79.833	-85.1915	176.439	17.1828	-91.0428	170.417	15.5407	-116.905	168.222	12.0367	-138.641	159.874	-10.3797	-90.2184	156.506	-12.2627	-114.331	149.313	-25.5656	-140.981	144.806	-24.4038	-74.2201	133.731	-34.9156	-93.2188	126.176	-43.0853	-118.442	129.735	-31.2917	-51.6352	113.185	-43.8844	-61.7352	95.5718	-58.8373	-74.8581	166.545	-19.8751	-34.8618	181.023	-15.4481	-8.4571	193.487	9.15169	-30.2665	
202	1.68333	190.738	46.1032	-26.1809	181.327	63.8683	-44.2665	180.777	76.0605	-69.3191	178.85	84.4535	-87.7357	180.385	23.8259	-95.7402	173.969	23.585	-118.029	171.642	18.0507	-140.818	164.253	-0.105541	-90.7236	156.005	-8.0165	-115.842	151.676	-13.9093	-140	147.176	-15.6687	-80.1663	133.993	-26.5081	-98.6649	125.311	-35.1189	-117.801	128.299	-25.4462	-54.4059	112.74	-34.0693	-67.5406	94.7458	-49.7418	-76.4817	170.467	-14.0737	-34.7865	177.923	-12.1033	-8.86511	194.133	11.3028	-32.1607	
203	1.69167	197.197	52.3362	-28.8805	189.27	70.5496	-44.758	185.917	80.5603	-69.0979	187.174	92.7958	-87.2373	182.283	29.046	-96.8076	179.834	31.2337	-118.075	178.439	26.9132	-144.528	164.314	2.86617	-95.4669	157.364	-0.320205	-116.35	150.368	-10.61	-141.53	145.641	-10.7269	-79.5883	134.33	-18.4704	-101.58	122.842	-28.4574	-121.28	128.007	-18.6772	-59.8132	110.487	-25.0335	-71.1186	95.439	-38.1494	-78.9838	171.153	-8.17238	-37.6373	180.451	-9.08209	-6.24407	197.728	14.3469	-35.7366	
204	1.7	199.365	55.0709	-24.9448	190.899	72.363	-45.2134	194.1	86.4253	-67.7311	194.736	97.7461	-83.0567	184.173	31.2438	-97.5369	183.145	36.6111	-120.056	180.126	30.0977	-144.986	165.101	7.85682	-94.3708	157.204	3.62133	-116.196	154.492	-2.01886	-142.906	147.341	-3.82172	-83.8433	133.138	-12.4323	-101.333	125.924	-17.8835	-123.93	130.166	-9.83382	-58.9973	109.43	-17.7201	-68.2599	95.5577	-28.3598	-80.7962	170.928	-1.53978	-37.0236	181.417	-2.96453	-10.4168	198.84	19.067	-34.2842	
205	1.70833	202.766	58.4383	-26.6571	200.498	78.5732	-42.8079	200.899	90.447	-65.7229	201.89	100.636	-84.2692	186.725	37.3591	-97.8089	185.753	41.6611	-121.352	184.659	37.8896	-139.54	167.498	14.4255	-91.6367	159.422	11.0176	-115.838	153.732	2.16731	-145.484	147.395	0.809642	-83.1799	137.819	-1.74938	-100.603	127.498	-7.36963	-123.427	133.236	-0.455461	-59.6372	113.16	-8.06056	-70.7737	95.7622	-19.8514	-84.3196	171.717	-0.206963	-38.5931	186.043	2.83068	-10.2742	200.605	20.8357	-35.3636	
206	1.71667	207.125	60.909	-27.7962	203.324	81.9594	-45.6258	207.005	96.2309	-68.0755	210.259	106.897	-82.827	189.467	41.3227	-97.3478	188.397	47.1297	-118.927	186.87	42.8972	-142.894	170.689	19.8961	-91.9502	161.233	16.2454	-115.804	156.524	11.1856	-144.567	150.263	9.15147	-80.6915	136.001	3.79517	-103.694	125.039	-3.33772	-126.029	132.837	5.8592	-60.9173	113.471	0.894601	-75.3614	97.4061	-9.70066	-84.3801	175.563	7.99832	-40.6389	182.764	5.60971	-13.1355	200.197	25.2969	-35.8411	
207	1.725	210.685	64.0272	-24.6572	205.889	83.4575	-44.9851	214.288	99.4354	-66.1115	217.672	110.784	-79.4781	194.617	47.3939	-97.1631	191.199	49.8445	-119.616	189.868	49.3817	-141.11	171.521	25.7677	-97.7516	163.687	23.0691	-116.37	159.021	18.1807	-146.26	151.579	16.9215	-81.1593	136.514	11.7762	-105.438	127.539	6.54461	-123.488	134.059	14.3024	-61.6759	111.328	8.30411	-72.6128	97.9504	-0.388873	-85.5278	176.467	11.4828	-40.6693	184.716	7.48556	-9.77328	204.727	27.6366	-33.8275	
208	1.73333	214.735	67.208	-25.5877	213.583	87.8454	-41.203	219.147	101.273	-64.923	227.597	114.14	-81.0679	199.089	52.4229	-94.6662	197.629	57.2593	-115.689	196.101	54.6929	-145.152	175.278	33.0115	-97.7621	165.385	29.3413	-117.113	159.889	24.8144	-143.389	154.948	25.1877	-84.162	142.256	23.8787	-102.114	128.953	16.9385	-124.859	131.718	20.9897	-66.0434	114.925	18.6798	-71.2067	99.6133	10.0825	-85.8313	177.219	18.9577	-41.0738	185.983	13.1677	-14.7125	203.968	31.5379	-37.7843	
209	1.74167	219.713	71.0283	-23.949	217.497	91.1608	-42.3005	223.75	104.183	-61.4112	232.707	118.048	-79.1858	201.639	57.6339	-92.3124	199.464	62.2569	-117.769	198.714	60.1691	-139.765	175.87	38.7658	-94.3669	167.197	36.7429	-118.433	164.245	35.0484	-145.756	156.087	31.9457	-85.5364	139.415	29.3332	-107.865	128.291	25.1911	-130.178	133.97	29.6194	-66.9196	114.811	28.6626	-78.4383	99.9167	20.0609	-88.1928	173.857	22.041	-42.5402	183.168	18.1428	-13.4174	203.518	35.1488	-36.0842	
210	1.75	218.691	70.3202	-22.5152	219.69	92.5735	-43.0406	227.765	107.629	-62.4276	236.229	119.596	-73.2141	205.007	63.1219	-95.7644	202.838	67.2321	-115.899	206.188	67.6069	-143.212	176.957	44.2211	-99.4657	173.984	46.3273	-121.28	166.176	43.0312	-145.088	157.791	38.0681	-84.2155	144.936	39.2087	-108.235	134.536	36.5402	-130.075	137.371	36.6678	-63.9295	118.272	38.6044	-78.0022	100.531	32.287	-90.693	178.942	28.9803	-42.3352	187.592	20.9529	-12.9405	208.589	38.4366	-35.3667	
211	1.75833	225.194	75.8791	-24.0017	228.541	96.7769	-36.9833	237.579	111.485	-58.3422	245.425	124.169	-72.0743	208.301	67.9549	-97.0645	208.781	72.6322	-117.655	209.714	73.3267	-144.08	183.134	50.4178	-96.6507	175.013	52.0942	-119.299	168.962	49.6329	-146.263	160.009	45.6576	-89.2393	144.79	43.7869	-107.934	133.264	42.8316	-130.162	136.685	43.0908	-67.162	123.359	46.8445	-77.2066	100.178	40.2463	-91.7478	180.318	32.7788	-45.5856	185.259	26.0858	-13.2696	208.815	41.0544	-37.7951	
